<svg width="256" height="256" viewBox="0 0 256 256" fill="none" xmlns="http://www.w3.org/2000/svg">
<g clip-path="url(#clip0_96_265)">
<path d="M256 0H0V256H256V0Z" fill="#222222"/>
<path d="M59.25 95.6875V196.75H133.156V122.844L59.25 95.6875Z" fill="#36CA79"/>
<path d="M133.156 122.844V196.75H196.75V59.25L133.156 122.844Z" fill="#27DD79"/>
<path d="M115.969 152.75L196.75 59.25L59.9375 129.72L115.969 152.75Z" fill="#2A945A"/>
<path d="M130.75 214.969L115.969 152.75L196.75 59.25L130.75 214.969Z" fill="#20A35C"/>
<path d="M113.156 142.844L196.75 59.25L59.25 129.563L113.156 142.844Z" fill="#E7E7E7"/>
<path d="M113.156 142.844L196.75 59.25L126.438 196.75L113.156 142.844Z" fill="white"/>
<path d="M197 196.75H59V218.75H197V196.75Z" fill="#222222"/>
<path d="M184 202H234V184.25H184V202Z" fill="#222222"/>
<path d="M22 202H72V184.25H22V202Z" fill="#222222"/>
<path d="M72.25 196.75C79.4297 196.75 85.25 190.93 85.25 183.75C85.25 176.57 79.4297 170.75 72.25 170.75C65.0703 170.75 59.25 176.57 59.25 183.75C59.25 190.93 65.0703 196.75 72.25 196.75Z" fill="#36CA79"/>
<path d="M184 196.75C191.042 196.75 196.75 191.042 196.75 184C196.75 176.958 191.042 171.25 184 171.25C176.958 171.25 171.25 176.958 171.25 184C171.25 191.042 176.958 196.75 184 196.75Z" fill="#27DD79"/>
</g>
<defs>
<clipPath id="clip0_96_265">
<rect width="256" height="256" fill="white"/>
</clipPath>
</defs>
</svg>
