<svg width="1024" height="1024" viewBox="0 0 1024 1024" fill="none" xmlns="http://www.w3.org/2000/svg">
<rect width="1024" height="1024" rx="512" fill="#222222"/>
<g clip-path="url(#clip0_96_205)">
<path d="M312 630H712V230L527 415L312 336V630Z" fill="url(#paint0_linear_96_205)"/>
</g>
<path d="M374.062 699.706C381.071 699.706 387.301 701.264 392.752 704.379C398.203 707.383 402.43 711.889 405.433 717.897C408.548 723.794 410.106 730.915 410.106 739.259V793.498H386.744V742.43C386.744 735.087 384.909 729.468 381.238 725.574C377.567 721.569 372.561 719.566 366.22 719.566C359.768 719.566 354.65 721.569 350.868 725.574C347.197 729.468 345.361 735.087 345.361 742.43V793.498H322V670H345.361V712.557C348.365 708.551 352.37 705.436 357.376 703.211C362.382 700.874 367.944 699.706 374.062 699.706Z" fill="white"/>
<path d="M422.977 746.936C422.977 737.59 424.812 729.301 428.483 722.069C432.265 714.838 437.327 709.275 443.668 705.381C450.12 701.486 457.296 699.539 465.194 699.539C472.091 699.539 478.098 700.93 483.215 703.712C488.444 706.493 492.616 709.998 495.73 714.226V701.041H519.259V793.498H495.73V779.98C492.727 784.319 488.555 787.935 483.215 790.828C477.987 793.609 471.924 795 465.027 795C457.24 795 450.12 792.997 443.668 788.992C437.327 784.987 432.265 779.368 428.483 772.136C424.812 764.793 422.977 756.393 422.977 746.936ZM495.73 747.27C495.73 741.595 494.618 736.756 492.393 732.75C490.168 728.634 487.165 725.518 483.382 723.405C479.6 721.179 475.54 720.067 471.201 720.067C466.863 720.067 462.858 721.124 459.187 723.238C455.516 725.352 452.512 728.467 450.176 732.583C447.951 736.589 446.839 741.373 446.839 746.936C446.839 752.499 447.951 757.394 450.176 761.622C452.512 765.739 455.516 768.91 459.187 771.135C462.969 773.36 466.974 774.473 471.201 774.473C475.54 774.473 479.6 773.416 483.382 771.302C487.165 769.077 490.168 765.961 492.393 761.956C494.618 757.839 495.73 752.944 495.73 747.27Z" fill="white"/>
<path d="M560.097 774.306H601.313V793.498H533.565V774.64L573.947 720.234H533.732V701.041H600.812V719.9L560.097 774.306Z" fill="white"/>
<path d="M702 745.267C702 748.605 701.777 751.609 701.333 754.279H633.751C634.308 760.955 636.644 766.184 640.76 769.967C644.876 773.749 649.938 775.641 655.945 775.641C664.622 775.641 670.796 771.914 674.467 764.459H699.664C696.994 773.36 691.877 780.703 684.312 786.489C676.747 792.163 667.459 795 656.445 795C647.546 795 639.536 793.053 632.417 789.159C625.408 785.154 619.902 779.535 615.897 772.303C612.003 765.071 610.056 756.727 610.056 747.27C610.056 737.701 612.003 729.301 615.897 722.069C619.79 714.838 625.241 709.275 632.25 705.381C639.258 701.486 647.323 699.539 656.445 699.539C665.234 699.539 673.076 701.431 679.974 705.214C686.982 708.996 692.377 714.393 696.16 721.402C700.053 728.3 702 736.255 702 745.267ZM677.804 738.591C677.693 732.583 675.524 727.799 671.296 724.239C667.069 720.567 661.896 718.732 655.778 718.732C649.993 718.732 645.098 720.512 641.094 724.072C637.2 727.521 634.808 732.361 633.918 738.591H677.804Z" fill="white"/>
<path d="M477 501.999L712 230L314 435.002L477 501.999Z" fill="black" fill-opacity="0.25"/>
<path d="M477 501.999L712 230L520 682.999L477 501.999Z" fill="black" fill-opacity="0.25"/>
<path d="M468.818 473.182L712 230L312 434.545L468.818 473.182Z" fill="#E7E7E7"/>
<path d="M468.818 473.182L712 230L507.455 630L468.818 473.182Z" fill="white"/>
<defs>
<linearGradient id="paint0_linear_96_205" x1="312" y1="230" x2="712" y2="630" gradientUnits="userSpaceOnUse">
<stop stop-color="#4BAA76"/>
<stop offset="1" stop-color="#1FE97A"/>
</linearGradient>
<clipPath id="clip0_96_205">
<path d="M312 230H712V590C712 612.091 694.091 630 672 630H352C329.909 630 312 612.091 312 590V230Z" fill="white"/>
</clipPath>
</defs>
</svg>
