<svg width="256" height="256" viewBox="0 0 256 256" fill="none" xmlns="http://www.w3.org/2000/svg">
<rect width="256" height="256" fill="#222222"/>
<g clip-path="url(#clip0_96_227)">
<path d="M59.25 196.75H196.75V59.25L133.156 122.844L59.25 95.6875V196.75Z" fill="url(#paint0_linear_96_227)"/>
</g>
<path d="M115.969 152.75L196.75 59.2503L59.9377 129.72L115.969 152.75Z" fill="black" fill-opacity="0.25"/>
<path d="M115.969 152.75L196.75 59.2503L130.75 214.969L115.969 152.75Z" fill="black" fill-opacity="0.25"/>
<path d="M113.156 142.844L196.75 59.25L59.25 129.563L113.156 142.844Z" fill="#E7E7E7"/>
<path d="M113.156 142.844L196.75 59.25L126.438 196.75L113.156 142.844Z" fill="white"/>
<defs>
<linearGradient id="paint0_linear_96_227" x1="59.25" y1="59.25" x2="196.75" y2="196.75" gradientUnits="userSpaceOnUse">
<stop stop-color="#4BAA76"/>
<stop offset="1" stop-color="#1FE97A"/>
</linearGradient>
<clipPath id="clip0_96_227">
<path d="M59.25 59.25H196.75V183C196.75 190.594 190.594 196.75 183 196.75H73C65.4061 196.75 59.25 190.594 59.25 183V59.25Z" fill="white"/>
</clipPath>
</defs>
</svg>
